<mxfile host="Electron" modified="2024-03-06T15:11:07.404Z" agent="Mozilla/5.0 (Macintosh; Intel Mac OS X 10_15_7) AppleWebKit/537.36 (KHTML, like Gecko) draw.io/23.1.5 Chrome/120.0.6099.109 Electron/28.1.0 Safari/537.36" etag="81mRW0ALl0TOznyyDVj8" version="23.1.5" type="device">
  <diagram name="Page-1" id="tLKPWGsJD2qUgSIZeHSL">
    <mxGraphModel dx="1044" dy="911" grid="1" gridSize="10" guides="1" tooltips="1" connect="1" arrows="1" fold="1" page="1" pageScale="1" pageWidth="850" pageHeight="1100" math="0" shadow="0">
      <root>
        <mxCell id="0" />
        <mxCell id="1" parent="0" />
        <mxCell id="dChTK6R3Bk3q4IorVtDz-3" value="&lt;h1&gt;EKS&lt;/h1&gt;" style="rounded=0;whiteSpace=wrap;html=1;spacingTop=-600;labelPosition=center;verticalLabelPosition=middle;align=center;verticalAlign=middle;labelBorderColor=none;labelBackgroundColor=none;fillColor=#dae8fc;strokeColor=#6c8ebf;" vertex="1" parent="1">
          <mxGeometry x="40" y="180" width="370" height="650" as="geometry" />
        </mxCell>
        <mxCell id="dChTK6R3Bk3q4IorVtDz-5" value="&lt;h2&gt;ARC Runners Nodes&lt;/h2&gt;" style="rounded=0;whiteSpace=wrap;html=1;spacingTop=-386;" vertex="1" parent="1">
          <mxGeometry x="72.5" y="400" width="307.5" height="420" as="geometry" />
        </mxCell>
        <mxCell id="dChTK6R3Bk3q4IorVtDz-30" value="" style="group;fillColor=#dae8fc;strokeColor=#6c8ebf;container=0;" vertex="1" connectable="0" parent="1">
          <mxGeometry x="72.5" y="270" width="305" height="100" as="geometry" />
        </mxCell>
        <mxCell id="dChTK6R3Bk3q4IorVtDz-35" value="" style="group;" vertex="1" connectable="0" parent="1">
          <mxGeometry x="81.25" y="450" width="290" height="110" as="geometry" />
        </mxCell>
        <mxCell id="dChTK6R3Bk3q4IorVtDz-15" value="&lt;h3&gt;Runner Scale Set -&amp;nbsp;linux.large.arc&lt;/h3&gt;" style="rounded=1;whiteSpace=wrap;html=1;spacingTop=-79;fillColor=#d5e8d4;strokeColor=#82b366;" vertex="1" parent="dChTK6R3Bk3q4IorVtDz-35">
          <mxGeometry width="290" height="110" as="geometry" />
        </mxCell>
        <mxCell id="dChTK6R3Bk3q4IorVtDz-11" value="EC2 Node" style="rounded=1;whiteSpace=wrap;html=1;fillColor=#f5f5f5;fontColor=#333333;strokeColor=#666666;" vertex="1" parent="dChTK6R3Bk3q4IorVtDz-35">
          <mxGeometry x="10" y="40" width="60" height="60" as="geometry" />
        </mxCell>
        <mxCell id="dChTK6R3Bk3q4IorVtDz-12" value="EC2 Node" style="rounded=1;whiteSpace=wrap;html=1;fillColor=#f5f5f5;fontColor=#333333;strokeColor=#666666;" vertex="1" parent="dChTK6R3Bk3q4IorVtDz-35">
          <mxGeometry x="80" y="40" width="60" height="60" as="geometry" />
        </mxCell>
        <mxCell id="dChTK6R3Bk3q4IorVtDz-13" value="EC2 Node" style="rounded=1;whiteSpace=wrap;html=1;fillColor=#f5f5f5;fontColor=#333333;strokeColor=#666666;" vertex="1" parent="dChTK6R3Bk3q4IorVtDz-35">
          <mxGeometry x="150" y="40" width="60" height="60" as="geometry" />
        </mxCell>
        <mxCell id="dChTK6R3Bk3q4IorVtDz-14" value="..." style="rounded=1;whiteSpace=wrap;html=1;fillColor=#f5f5f5;fontColor=#333333;strokeColor=#666666;" vertex="1" parent="dChTK6R3Bk3q4IorVtDz-35">
          <mxGeometry x="220" y="40" width="60" height="60" as="geometry" />
        </mxCell>
        <mxCell id="dChTK6R3Bk3q4IorVtDz-36" value="" style="group" vertex="1" connectable="0" parent="1">
          <mxGeometry x="80" y="580" width="290" height="110" as="geometry" />
        </mxCell>
        <mxCell id="dChTK6R3Bk3q4IorVtDz-18" value="&lt;h3&gt;Runner Scale Set -&amp;nbsp;linux.2xlarge.arc&lt;/h3&gt;" style="rounded=1;whiteSpace=wrap;html=1;spacingTop=-79;fillColor=#d5e8d4;strokeColor=#82b366;" vertex="1" parent="dChTK6R3Bk3q4IorVtDz-36">
          <mxGeometry width="290" height="110" as="geometry" />
        </mxCell>
        <mxCell id="dChTK6R3Bk3q4IorVtDz-19" value="EC2 Node" style="rounded=1;whiteSpace=wrap;html=1;fillColor=#f5f5f5;fontColor=#333333;strokeColor=#666666;" vertex="1" parent="dChTK6R3Bk3q4IorVtDz-36">
          <mxGeometry x="10" y="40" width="60" height="60" as="geometry" />
        </mxCell>
        <mxCell id="dChTK6R3Bk3q4IorVtDz-20" value="EC2 Node" style="rounded=1;whiteSpace=wrap;html=1;fillColor=#f5f5f5;fontColor=#333333;strokeColor=#666666;" vertex="1" parent="dChTK6R3Bk3q4IorVtDz-36">
          <mxGeometry x="80" y="40" width="60" height="60" as="geometry" />
        </mxCell>
        <mxCell id="dChTK6R3Bk3q4IorVtDz-21" value="EC2 Node" style="rounded=1;whiteSpace=wrap;html=1;fillColor=#f5f5f5;fontColor=#333333;strokeColor=#666666;" vertex="1" parent="dChTK6R3Bk3q4IorVtDz-36">
          <mxGeometry x="150" y="40" width="60" height="60" as="geometry" />
        </mxCell>
        <mxCell id="dChTK6R3Bk3q4IorVtDz-22" value="..." style="rounded=1;whiteSpace=wrap;html=1;fillColor=#f5f5f5;fontColor=#333333;strokeColor=#666666;" vertex="1" parent="dChTK6R3Bk3q4IorVtDz-36">
          <mxGeometry x="220" y="40" width="60" height="60" as="geometry" />
        </mxCell>
        <mxCell id="dChTK6R3Bk3q4IorVtDz-37" value="" style="group" vertex="1" connectable="0" parent="1">
          <mxGeometry x="80" y="700" width="290" height="110" as="geometry" />
        </mxCell>
        <mxCell id="dChTK6R3Bk3q4IorVtDz-24" value="&lt;h3&gt;Runner Scale Set -&amp;nbsp;linux-gpu.large.arc&lt;/h3&gt;" style="rounded=1;whiteSpace=wrap;html=1;spacingTop=-79;fillColor=#d5e8d4;strokeColor=#82b366;" vertex="1" parent="dChTK6R3Bk3q4IorVtDz-37">
          <mxGeometry width="290" height="110" as="geometry" />
        </mxCell>
        <mxCell id="dChTK6R3Bk3q4IorVtDz-25" value="EC2 Node" style="rounded=1;whiteSpace=wrap;html=1;fillColor=#f5f5f5;fontColor=#333333;strokeColor=#666666;" vertex="1" parent="dChTK6R3Bk3q4IorVtDz-37">
          <mxGeometry x="10" y="40" width="60" height="60" as="geometry" />
        </mxCell>
        <mxCell id="dChTK6R3Bk3q4IorVtDz-26" value="EC2 Node" style="rounded=1;whiteSpace=wrap;html=1;fillColor=#f5f5f5;fontColor=#333333;strokeColor=#666666;" vertex="1" parent="dChTK6R3Bk3q4IorVtDz-37">
          <mxGeometry x="80" y="40" width="60" height="60" as="geometry" />
        </mxCell>
        <mxCell id="dChTK6R3Bk3q4IorVtDz-27" value="EC2 Node" style="rounded=1;whiteSpace=wrap;html=1;fillColor=#f5f5f5;fontColor=#333333;strokeColor=#666666;" vertex="1" parent="dChTK6R3Bk3q4IorVtDz-37">
          <mxGeometry x="150" y="40" width="60" height="60" as="geometry" />
        </mxCell>
        <mxCell id="dChTK6R3Bk3q4IorVtDz-28" value="..." style="rounded=1;whiteSpace=wrap;html=1;fillColor=#f5f5f5;fontColor=#333333;strokeColor=#666666;" vertex="1" parent="dChTK6R3Bk3q4IorVtDz-37">
          <mxGeometry x="220" y="40" width="60" height="60" as="geometry" />
        </mxCell>
        <mxCell id="dChTK6R3Bk3q4IorVtDz-45" style="edgeStyle=orthogonalEdgeStyle;rounded=0;orthogonalLoop=1;jettySize=auto;html=1;exitX=1;exitY=0.5;exitDx=0;exitDy=0;entryX=0;entryY=0.5;entryDx=0;entryDy=0;dashed=1;" edge="1" parent="1" source="dChTK6R3Bk3q4IorVtDz-4" target="dChTK6R3Bk3q4IorVtDz-34">
          <mxGeometry relative="1" as="geometry" />
        </mxCell>
        <mxCell id="dChTK6R3Bk3q4IorVtDz-4" value="&lt;h2 style=&quot;line-height: 120%;&quot;&gt;Node Group - Green&lt;/h2&gt;" style="rounded=1;whiteSpace=wrap;html=1;align=center;labelPosition=center;verticalLabelPosition=middle;verticalAlign=middle;spacingTop=-74;glass=0;shadow=0;strokeWidth=1;fillColor=#dae8fc;strokeColor=#6c8ebf;" vertex="1" parent="1">
          <mxGeometry x="72.5" y="270" width="305" height="100" as="geometry" />
        </mxCell>
        <mxCell id="dChTK6R3Bk3q4IorVtDz-7" value="EC2 Node" style="rounded=1;whiteSpace=wrap;html=1;fillColor=#f5f5f5;strokeColor=#666666;fontColor=#333333;" vertex="1" parent="1">
          <mxGeometry x="100" y="300" width="60" height="60" as="geometry" />
        </mxCell>
        <mxCell id="dChTK6R3Bk3q4IorVtDz-8" value="EC2 Node" style="rounded=1;whiteSpace=wrap;html=1;fillColor=#f5f5f5;strokeColor=#666666;fontColor=#333333;" vertex="1" parent="1">
          <mxGeometry x="170" y="300" width="60" height="60" as="geometry" />
        </mxCell>
        <mxCell id="dChTK6R3Bk3q4IorVtDz-9" value="EC2 Node" style="rounded=1;whiteSpace=wrap;html=1;fillColor=#f5f5f5;strokeColor=#666666;fontColor=#333333;" vertex="1" parent="1">
          <mxGeometry x="240" y="300" width="60" height="60" as="geometry" />
        </mxCell>
        <mxCell id="dChTK6R3Bk3q4IorVtDz-10" value="..." style="rounded=1;whiteSpace=wrap;html=1;fillColor=#f5f5f5;strokeColor=#666666;fontColor=#333333;" vertex="1" parent="1">
          <mxGeometry x="310" y="300" width="60" height="60" as="geometry" />
        </mxCell>
        <mxCell id="dChTK6R3Bk3q4IorVtDz-43" value="" style="group" vertex="1" connectable="0" parent="1">
          <mxGeometry x="520" y="330" width="220" height="110" as="geometry" />
        </mxCell>
        <mxCell id="dChTK6R3Bk3q4IorVtDz-34" value="&lt;h2&gt;Green - Services&lt;/h2&gt;" style="rounded=0;whiteSpace=wrap;html=1;dashed=1;spacingTop=-82;fillColor=#f5f5f5;fontColor=#333333;strokeColor=#666666;" vertex="1" parent="dChTK6R3Bk3q4IorVtDz-43">
          <mxGeometry width="220" height="110" as="geometry" />
        </mxCell>
        <mxCell id="dChTK6R3Bk3q4IorVtDz-39" value="ARC Controller" style="rounded=1;whiteSpace=wrap;html=1;fillColor=#ffe6cc;strokeColor=#d79b00;" vertex="1" parent="dChTK6R3Bk3q4IorVtDz-43">
          <mxGeometry x="10" y="40" width="60" height="60" as="geometry" />
        </mxCell>
        <mxCell id="dChTK6R3Bk3q4IorVtDz-40" value="Docker Mirror" style="rounded=1;whiteSpace=wrap;html=1;fillColor=#ffe6cc;strokeColor=#d79b00;" vertex="1" parent="dChTK6R3Bk3q4IorVtDz-43">
          <mxGeometry x="80" y="40" width="60" height="60" as="geometry" />
        </mxCell>
        <mxCell id="dChTK6R3Bk3q4IorVtDz-42" value="Karpenter" style="rounded=1;whiteSpace=wrap;html=1;fillColor=#ffe6cc;strokeColor=#d79b00;" vertex="1" parent="dChTK6R3Bk3q4IorVtDz-43">
          <mxGeometry x="150" y="40" width="60" height="60" as="geometry" />
        </mxCell>
        <mxCell id="dChTK6R3Bk3q4IorVtDz-49" value="" style="group" vertex="1" connectable="0" parent="1">
          <mxGeometry x="520" y="180" width="220" height="110" as="geometry" />
        </mxCell>
        <mxCell id="dChTK6R3Bk3q4IorVtDz-46" value="&lt;h3&gt;Managed By&lt;/h3&gt;" style="rounded=1;whiteSpace=wrap;html=1;dashed=1;dashPattern=1 1;spacingTop=-79;" vertex="1" parent="dChTK6R3Bk3q4IorVtDz-49">
          <mxGeometry width="220" height="110" as="geometry" />
        </mxCell>
        <mxCell id="dChTK6R3Bk3q4IorVtDz-31" value="Terraform" style="rounded=0;whiteSpace=wrap;html=1;fillColor=#dae8fc;strokeColor=#6c8ebf;" vertex="1" parent="dChTK6R3Bk3q4IorVtDz-49">
          <mxGeometry x="10" y="38" width="60" height="60" as="geometry" />
        </mxCell>
        <mxCell id="dChTK6R3Bk3q4IorVtDz-32" value="Makefile" style="rounded=0;whiteSpace=wrap;html=1;fillColor=#ffe6cc;strokeColor=#d79b00;" vertex="1" parent="dChTK6R3Bk3q4IorVtDz-49">
          <mxGeometry x="80" y="38" width="60" height="60" as="geometry" />
        </mxCell>
        <mxCell id="dChTK6R3Bk3q4IorVtDz-33" value="Makefile&lt;br&gt;+&lt;br&gt;Python" style="rounded=0;whiteSpace=wrap;html=1;fillColor=#d5e8d4;strokeColor=#82b366;" vertex="1" parent="dChTK6R3Bk3q4IorVtDz-49">
          <mxGeometry x="150" y="38" width="60" height="60" as="geometry" />
        </mxCell>
        <mxCell id="dChTK6R3Bk3q4IorVtDz-51" value="&lt;h1&gt;&lt;font style=&quot;font-size: 36px;&quot;&gt;EKS Architecture&lt;/font&gt;&lt;/h1&gt;" style="text;strokeColor=none;align=center;fillColor=none;html=1;verticalAlign=middle;whiteSpace=wrap;rounded=0;fontStyle=1" vertex="1" parent="1">
          <mxGeometry x="40" y="50" width="710" height="50" as="geometry" />
        </mxCell>
      </root>
    </mxGraphModel>
  </diagram>
</mxfile>
